<svg xmlns="http://www.w3.org/2000/svg" width="1141" height="213" fill="none" viewBox="0 0 1141 213"><path fill="#000" d="M2.68469 92.8763C-0.894896 89.4723 -0.894896 83.955 2.68469 80.551C6.26484 77.1497 12.0685 77.1497 15.6492 80.551L70.6406 132.845C74.2214 136.249 74.2214 141.75 70.6406 145.154L15.6492 197.44C12.0685 200.844 6.26484 200.844 2.68469 197.44C-0.894896 194.036 -0.894896 188.535 2.68469 185.131L51.1901 139L2.68469 92.8763ZM155.833 182.571C160.904 182.571 165 186.466 165 191.286C165 196.106 160.904 200 155.833 200H73.3333C68.263 200 64.1667 196.106 64.1667 191.286C64.1667 186.466 68.263 182.571 73.3333 182.571H155.833Z"/><path fill="#000" d="M88.624 60.2H111.664L125.2 155.816H126.928L140.464 60.2H163.504V161H152.272V65.384H150.544L137.008 161H115.12L101.584 65.384H99.856V161H88.624V60.2ZM234.54 148.904H232.812C230.508 153.704 227.292 157.256 223.164 159.56C219.132 161.864 214.86 163.016 210.348 163.016C205.644 163.016 201.276 162.248 197.244 160.712C193.212 159.08 189.66 156.728 186.588 153.656C183.612 150.488 181.26 146.648 179.532 142.136C177.804 137.624 176.94 132.392 176.94 126.44V124.136C176.94 118.28 177.804 113.096 179.532 108.584C181.26 104.072 183.612 100.28 186.588 97.208C189.66 94.04 193.212 91.64 197.244 90.008C201.276 88.376 205.548 87.56 210.06 87.56C214.956 87.56 219.372 88.664 223.308 90.872C227.34 92.984 230.508 96.296 232.812 100.808H234.54V89.576H245.772V146.312C245.772 149.192 247.068 150.632 249.66 150.632H253.26V161H245.628C242.364 161 239.676 159.944 237.564 157.832C235.548 155.72 234.54 153.032 234.54 149.768V148.904ZM211.5 152.36C214.86 152.36 217.932 151.736 220.716 150.488C223.596 149.24 226.044 147.464 228.06 145.16C230.076 142.856 231.66 140.12 232.812 136.952C233.964 133.688 234.54 130.088 234.54 126.152V124.424C234.54 120.584 233.964 117.08 232.812 113.912C231.66 110.648 230.028 107.864 227.916 105.56C225.9 103.256 223.452 101.48 220.572 100.232C217.788 98.888 214.764 98.216 211.5 98.216C208.14 98.216 205.068 98.84 202.284 100.088C199.5 101.336 197.052 103.112 194.94 105.416C192.924 107.624 191.34 110.36 190.188 113.624C189.036 116.792 188.46 120.296 188.46 124.136V126.44C188.46 134.6 190.572 140.984 194.796 145.592C199.116 150.104 204.684 152.36 211.5 152.36ZM266.84 89.576H292.76V99.08H294.488C296.312 95.144 298.904 92.264 302.264 90.44C305.624 88.52 309.464 87.56 313.784 87.56C320.984 87.56 326.792 89.912 331.208 94.616C335.624 99.32 337.976 106.184 338.264 115.208L326.456 116.936C326.456 110.312 324.872 105.56 321.704 102.68C318.536 99.704 314.648 98.216 310.04 98.216C307.064 98.216 304.472 98.792 302.264 99.944C300.152 101.096 298.376 102.68 296.936 104.696C295.496 106.712 294.44 109.064 293.768 111.752C293.096 114.44 292.76 117.32 292.76 120.392V150.632H310.904V161H265.112V150.632H281.528V99.944H266.84V89.576ZM359.044 150.632H384.964V70.568H359.908V60.2H396.196V150.632H422.116V161H359.044V150.632ZM514.608 126.152C514.608 132.104 513.6 137.384 511.584 141.992C509.664 146.504 507.072 150.344 503.808 153.512C500.544 156.584 496.704 158.936 492.288 160.568C487.968 162.2 483.456 163.016 478.752 163.016C473.952 163.016 469.392 162.2 465.072 160.568C460.752 158.936 456.96 156.584 453.695 153.512C450.432 150.344 447.792 146.504 445.776 141.992C443.856 137.384 442.896 132.104 442.896 126.152V124.424C442.896 118.568 443.856 113.384 445.776 108.872C447.792 104.264 450.432 100.376 453.695 97.208C457.056 94.04 460.896 91.64 465.216 90.008C469.536 88.376 474.048 87.56 478.752 87.56C483.456 87.56 487.968 88.376 492.288 90.008C496.608 91.64 500.4 94.04 503.664 97.208C507.024 100.376 509.664 104.264 511.584 108.872C513.6 113.384 514.608 118.568 514.608 124.424V126.152ZM478.752 152.36C482.208 152.36 485.376 151.784 488.256 150.632C491.232 149.384 493.824 147.608 496.032 145.304C498.24 143 499.968 140.264 501.216 137.096C502.464 133.832 503.088 130.184 503.088 126.152V124.424C503.088 120.584 502.464 117.08 501.216 113.912C499.968 110.648 498.24 107.864 496.032 105.56C493.824 103.256 491.232 101.48 488.256 100.232C485.28 98.888 482.112 98.216 478.752 98.216C475.392 98.216 472.224 98.888 469.248 100.232C466.272 101.48 463.68 103.256 461.472 105.56C459.264 107.864 457.536 110.648 456.288 113.912C455.04 117.08 454.416 120.584 454.416 124.424V126.152C454.416 130.184 455.04 133.832 456.288 137.096C457.536 140.264 459.264 143 461.472 145.304C463.68 147.608 466.224 149.384 469.104 150.632C472.08 151.784 475.296 152.36 478.752 152.36ZM546.619 161H535.387V89.576H546.619V101.672H548.347C552.763 92.264 560.443 87.56 571.387 87.56C579.643 87.56 586.219 90.152 591.115 95.336C596.011 100.424 598.459 108.104 598.459 118.376V161H587.227V120.68C587.227 113.192 585.547 107.576 582.187 103.832C578.827 100.088 574.267 98.216 568.507 98.216C561.691 98.216 556.315 100.568 552.379 105.272C548.539 109.88 546.619 116.072 546.619 123.848V161ZM676.695 135.944H633.495L626.151 161H613.191L643.719 60.2H666.471L696.999 161H684.039L676.695 135.944ZM654.231 65.384L636.807 124.712H673.383L655.959 65.384H654.231ZM778.547 135.656C777.779 139.592 776.435 143.24 774.515 146.6C772.691 149.96 770.339 152.888 767.459 155.384C764.579 157.784 761.219 159.656 757.379 161C753.539 162.344 749.267 163.016 744.563 163.016C739.571 163.016 734.819 162.2 730.307 160.568C725.891 158.936 722.003 156.584 718.643 153.512C715.283 150.344 712.595 146.504 710.579 141.992C708.659 137.48 707.699 132.296 707.699 126.44V124.712C707.699 118.952 708.659 113.768 710.579 109.16C712.595 104.552 715.283 100.664 718.643 97.496C722.003 94.328 725.891 91.88 730.307 90.152C734.819 88.424 739.571 87.56 744.563 87.56C749.075 87.56 753.251 88.232 757.091 89.576C760.931 90.92 764.291 92.84 767.171 95.336C770.147 97.736 772.547 100.616 774.371 103.976C776.291 107.336 777.587 110.984 778.259 114.92L767.027 117.512C766.739 115.016 766.019 112.616 764.867 110.312C763.811 107.912 762.323 105.848 760.403 104.12C758.579 102.296 756.323 100.856 753.635 99.8C750.947 98.744 747.827 98.216 744.275 98.216C740.819 98.216 737.555 98.888 734.483 100.232C731.507 101.48 728.867 103.304 726.563 105.704C724.259 108.008 722.435 110.792 721.091 114.056C719.843 117.32 719.219 120.872 719.219 124.712V126.44C719.219 130.472 719.843 134.12 721.091 137.384C722.435 140.552 724.259 143.24 726.563 145.448C728.867 147.656 731.555 149.384 734.627 150.632C737.699 151.784 741.011 152.36 744.563 152.36C748.115 152.36 751.187 151.832 753.779 150.776C756.467 149.624 758.723 148.184 760.547 146.456C762.467 144.632 763.955 142.568 765.011 140.264C766.163 137.96 766.931 135.56 767.315 133.064L778.547 135.656ZM867.295 126.152C867.295 132.104 866.287 137.384 864.271 141.992C862.351 146.504 859.759 150.344 856.495 153.512C853.231 156.584 849.391 158.936 844.975 160.568C840.655 162.2 836.143 163.016 831.439 163.016C826.639 163.016 822.079 162.2 817.759 160.568C813.439 158.936 809.647 156.584 806.383 153.512C803.119 150.344 800.479 146.504 798.463 141.992C796.543 137.384 795.583 132.104 795.583 126.152V124.424C795.583 118.568 796.543 113.384 798.463 108.872C800.479 104.264 803.119 100.376 806.383 97.208C809.743 94.04 813.583 91.64 817.903 90.008C822.223 88.376 826.735 87.56 831.439 87.56C836.143 87.56 840.655 88.376 844.975 90.008C849.295 91.64 853.087 94.04 856.351 97.208C859.711 100.376 862.351 104.264 864.271 108.872C866.287 113.384 867.295 118.568 867.295 124.424V126.152ZM831.439 152.36C834.895 152.36 838.063 151.784 840.943 150.632C843.919 149.384 846.511 147.608 848.719 145.304C850.927 143 852.655 140.264 853.903 137.096C855.151 133.832 855.775 130.184 855.775 126.152V124.424C855.775 120.584 855.151 117.08 853.903 113.912C852.655 110.648 850.927 107.864 848.719 105.56C846.511 103.256 843.919 101.48 840.943 100.232C837.967 98.888 834.799 98.216 831.439 98.216C828.079 98.216 824.911 98.888 821.935 100.232C818.959 101.48 816.367 103.256 814.159 105.56C811.951 107.864 810.223 110.648 808.975 113.912C807.727 117.08 807.103 120.584 807.103 124.424V126.152C807.103 130.184 807.727 133.832 808.975 137.096C810.223 140.264 811.951 143 814.159 145.304C816.367 147.608 818.911 149.384 821.791 150.632C824.767 151.784 827.983 152.36 831.439 152.36ZM902.907 108.008C902.907 111.464 904.347 114.104 907.227 115.928C910.203 117.752 915.579 118.952 923.355 119.528C931.707 120.2 938.043 122.216 942.363 125.576C946.779 128.84 948.987 133.64 948.987 139.976V140.84C948.987 144.296 948.267 147.416 946.827 150.2C945.483 152.888 943.563 155.192 941.067 157.112C938.667 159.032 935.691 160.472 932.139 161.432C928.683 162.488 924.891 163.016 920.763 163.016C915.195 163.016 910.395 162.296 906.363 160.856C902.427 159.32 899.115 157.352 896.427 154.952C893.835 152.456 891.867 149.672 890.523 146.6C889.179 143.432 888.411 140.264 888.219 137.096L898.875 134.504C899.355 139.976 901.467 144.392 905.211 147.752C908.955 151.016 913.947 152.648 920.187 152.648C925.467 152.648 929.691 151.64 932.859 149.624C936.123 147.512 937.755 144.584 937.755 140.84C937.755 136.808 936.171 133.928 933.003 132.2C929.835 130.472 924.699 129.368 917.595 128.888C909.339 128.312 903.003 126.392 898.587 123.128C894.171 119.864 891.963 115.112 891.963 108.872V108.008C891.963 104.648 892.683 101.72 894.123 99.224C895.563 96.632 897.483 94.472 899.883 92.744C902.379 91.016 905.163 89.72 908.235 88.856C911.307 87.992 914.523 87.56 917.883 87.56C922.587 87.56 926.715 88.232 930.267 89.576C933.819 90.824 936.795 92.504 939.195 94.616C941.595 96.632 943.419 98.984 944.667 101.672C946.011 104.36 946.875 107.048 947.259 109.736L936.603 112.328C936.123 107.72 934.251 104.12 930.987 101.528C927.819 98.936 923.643 97.64 918.459 97.64C916.443 97.64 914.475 97.88 912.555 98.36C910.731 98.744 909.099 99.368 907.659 100.232C906.219 101.096 905.067 102.2 904.203 103.544C903.339 104.792 902.907 106.28 902.907 108.008ZM973.799 89.576H996.263V60.2H1007.49V89.576H1035.14V99.944H1007.49V146.312C1007.49 149.192 1008.79 150.632 1011.38 150.632H1031.69V161H1007.35C1004.09 161 1001.4 159.944 999.287 157.832C997.271 155.72 996.263 153.032 996.263 149.768V99.944H973.799V89.576ZM1116.26 148.904H1114.53C1112.23 153.704 1109.01 157.256 1104.88 159.56C1100.85 161.864 1096.58 163.016 1092.07 163.016C1087.36 163.016 1082.99 162.248 1078.96 160.712C1074.93 159.08 1071.38 156.728 1068.31 153.656C1065.33 150.488 1062.98 146.648 1061.25 142.136C1059.52 137.624 1058.66 132.392 1058.66 126.44V124.136C1058.66 118.28 1059.52 113.096 1061.25 108.584C1062.98 104.072 1065.33 100.28 1068.31 97.208C1071.38 94.04 1074.93 91.64 1078.96 90.008C1082.99 88.376 1087.27 87.56 1091.78 87.56C1096.67 87.56 1101.09 88.664 1105.03 90.872C1109.06 92.984 1112.23 96.296 1114.53 100.808H1116.26V89.576H1127.49V146.312C1127.49 149.192 1128.79 150.632 1131.38 150.632H1134.98V161H1127.35C1124.08 161 1121.39 159.944 1119.28 157.832C1117.27 155.72 1116.26 153.032 1116.26 149.768V148.904ZM1093.22 152.36C1096.58 152.36 1099.65 151.736 1102.43 150.488C1105.31 149.24 1107.76 147.464 1109.78 145.16C1111.79 142.856 1113.38 140.12 1114.53 136.952C1115.68 133.688 1116.26 130.088 1116.26 126.152V124.424C1116.26 120.584 1115.68 117.08 1114.53 113.912C1113.38 110.648 1111.75 107.864 1109.63 105.56C1107.62 103.256 1105.17 101.48 1102.29 100.232C1099.51 98.888 1096.48 98.216 1093.22 98.216C1089.86 98.216 1086.79 98.84 1084 100.088C1081.22 101.336 1078.77 103.112 1076.66 105.416C1074.64 107.624 1073.06 110.36 1071.91 113.624C1070.75 116.792 1070.18 120.296 1070.18 124.136V126.44C1070.18 134.6 1072.29 140.984 1076.51 145.592C1080.83 150.104 1086.4 152.36 1093.22 152.36Z"/></svg>